<svg viewBox="0 0 1091 311" fill="none" xmlns="http://www.w3.org/2000/svg">
<path d="M368.561 17.7991V70H361.322L334.789 31.7159H334.304V70H326.428V17.7991H333.718L360.277 56.1341H360.762V17.7991H368.561ZM421.806 43.8995C421.806 49.4731 420.786 54.265 418.747 58.2752C416.708 62.2684 413.913 65.3441 410.361 67.5021C406.827 69.6432 402.808 70.7137 398.305 70.7137C393.785 70.7137 389.75 69.6432 386.198 67.5021C382.664 65.3441 379.877 62.2599 377.838 58.2497C375.799 54.2395 374.779 49.4561 374.779 43.8995C374.779 38.326 375.799 33.5426 377.838 29.5494C379.877 25.5392 382.664 22.4635 386.198 20.3225C389.75 18.1644 393.785 17.0854 398.305 17.0854C402.808 17.0854 406.827 18.1644 410.361 20.3225C413.913 22.4635 416.708 25.5392 418.747 29.5494C420.786 33.5426 421.806 38.326 421.806 43.8995ZM414.006 43.8995C414.006 39.6514 413.318 36.0745 411.942 33.1688C410.582 30.2461 408.713 28.0371 406.334 26.5417C403.972 25.0294 401.296 24.2732 398.305 24.2732C395.298 24.2732 392.613 25.0294 390.251 26.5417C387.889 28.0371 386.02 30.2461 384.643 33.1688C383.284 36.0745 382.604 39.6514 382.604 43.8995C382.604 48.1477 383.284 51.7331 384.643 54.6558C386.02 57.5615 387.889 59.7705 390.251 61.2829C392.613 62.7782 395.298 63.5259 398.305 63.5259C401.296 63.5259 403.972 62.7782 406.334 61.2829C408.713 59.7705 410.582 57.5615 411.942 54.6558C413.318 51.7331 414.006 48.1477 414.006 43.8995ZM428.037 70V17.7991H446.643C450.688 17.7991 454.044 18.4958 456.711 19.8892C459.396 21.2825 461.401 23.2112 462.727 25.6751C464.052 28.122 464.715 30.9513 464.715 34.1628C464.715 37.3574 464.044 40.1697 462.701 42.5996C461.376 45.0125 459.371 46.8902 456.686 48.2326C454.018 49.575 450.662 50.2462 446.618 50.2462H432.523V43.4662H445.904C448.453 43.4662 450.526 43.1009 452.123 42.3702C453.738 41.6395 454.919 40.5775 455.666 39.1841C456.414 37.7907 456.788 36.117 456.788 34.1628C456.788 32.1917 456.406 30.484 455.641 29.0396C454.893 27.5952 453.712 26.4907 452.098 25.7261C450.501 24.9444 448.402 24.5536 445.802 24.5536H435.913V70H428.037ZM453.806 46.4484L466.703 70H457.731L445.089 46.4484H453.806ZM468.135 24.5791V17.7991H508.535V24.5791H492.248V70H484.397V24.5791H468.135ZM513.874 70V17.7991H521.75V40.4841H547.774V17.7991H555.675V70H547.774V47.2386H521.75V70H513.874ZM578.963 70V17.7991H597.57C601.631 17.7991 604.995 18.5383 607.663 20.0166C610.331 21.4949 612.328 23.5171 613.653 26.0829C614.979 28.6318 615.641 31.5035 615.641 34.6981C615.641 37.9097 614.97 40.7984 613.628 43.3643C612.302 45.9132 610.297 47.9353 607.612 49.4306C604.945 50.9089 601.589 51.6481 597.544 51.6481H584.749V44.9701H596.831C599.396 44.9701 601.478 44.5283 603.075 43.6447C604.673 42.7441 605.845 41.5206 606.593 39.9743C607.34 38.428 607.714 36.6692 607.714 34.6981C607.714 32.727 607.34 30.9768 606.593 29.4474C605.845 27.9181 604.664 26.7201 603.05 25.8535C601.453 24.9869 599.345 24.5536 596.729 24.5536H586.839V70H578.963ZM666.63 43.8995C666.63 49.4731 665.611 54.265 663.572 58.2752C661.532 62.2684 658.737 65.3441 655.186 67.5021C651.651 69.6432 647.633 70.7137 643.13 70.7137C638.61 70.7137 634.574 69.6432 631.022 67.5021C627.488 65.3441 624.701 62.2599 622.662 58.2497C620.623 54.2395 619.604 49.4561 619.604 43.8995C619.604 38.326 620.623 33.5426 622.662 29.5494C624.701 25.5392 627.488 22.4635 631.022 20.3225C634.574 18.1644 638.61 17.0854 643.13 17.0854C647.633 17.0854 651.651 18.1644 655.186 20.3225C658.737 22.4635 661.532 25.5392 663.572 29.5494C665.611 33.5426 666.63 38.326 666.63 43.8995ZM658.831 43.8995C658.831 39.6514 658.142 36.0745 656.766 33.1688C655.407 30.2461 653.538 28.0371 651.159 26.5417C648.797 25.0294 646.12 24.2732 643.13 24.2732C640.122 24.2732 637.437 25.0294 635.075 26.5417C632.713 28.0371 630.844 30.2461 629.468 33.1688C628.108 36.0745 627.429 39.6514 627.429 43.8995C627.429 48.1477 628.108 51.7331 629.468 54.6558C630.844 57.5615 632.713 59.7705 635.075 61.2829C637.437 62.7782 640.122 63.5259 643.13 63.5259C646.12 63.5259 648.797 62.7782 651.159 61.2829C653.538 59.7705 655.407 57.5615 656.766 54.6558C658.142 51.7331 658.831 48.1477 658.831 43.8995ZM672.861 70V17.7991H680.737V63.22H704.39V70H672.861ZM709.786 70V17.7991H742.514V24.5791H717.662V40.4841H740.806V47.2386H717.662V63.22H742.82V70H709.786ZM793.323 31.512C793.051 29.0991 791.93 27.2299 789.959 25.9045C787.988 24.5621 785.507 23.8909 782.516 23.8909C780.375 23.8909 778.523 24.2307 776.959 24.9104C775.396 25.5731 774.181 26.4907 773.315 27.6632C772.465 28.8187 772.04 30.1356 772.04 31.614C772.04 32.8544 772.329 33.925 772.907 34.8256C773.501 35.7262 774.275 36.4823 775.226 37.0941C776.195 37.6888 777.231 38.1901 778.336 38.5979C779.44 38.9887 780.502 39.3116 781.522 39.5665L786.62 40.8919C788.285 41.2997 789.993 41.8519 791.743 42.5486C793.493 43.2453 795.116 44.1629 796.611 45.3014C798.107 46.4399 799.313 47.8503 800.231 49.5326C801.165 51.2148 801.633 53.2284 801.633 55.5734C801.633 58.5301 800.868 61.1554 799.339 63.4494C797.826 65.7434 795.626 67.5531 792.737 68.8785C789.865 70.2039 786.39 70.8666 782.312 70.8666C778.404 70.8666 775.022 70.2464 772.168 69.0059C769.313 67.7655 767.078 66.0068 765.464 63.7298C763.85 61.4358 762.958 58.717 762.788 55.5734H770.689C770.842 57.4595 771.454 59.0314 772.524 60.2888C773.612 61.5292 774.997 62.4553 776.679 63.0671C778.378 63.6618 780.239 63.9592 782.261 63.9592C784.487 63.9592 786.467 63.6108 788.2 62.9141C789.95 62.2004 791.327 61.2149 792.329 59.9574C793.332 58.683 793.833 57.1962 793.833 55.4969C793.833 53.9506 793.391 52.6847 792.508 51.6991C791.641 50.7135 790.46 49.8979 788.965 49.2522C787.486 48.6065 785.813 48.0372 783.943 47.5444L777.775 45.8622C773.595 44.7237 770.281 43.0499 767.834 40.8409C765.405 38.6319 764.19 35.7092 764.19 32.0728C764.19 29.0651 765.005 26.4398 766.637 24.1968C768.268 21.9537 770.477 20.212 773.264 18.9716C776.05 17.7141 779.194 17.0854 782.694 17.0854C786.229 17.0854 789.347 17.7056 792.049 18.9461C794.768 20.1865 796.909 21.8943 798.472 24.0693C800.035 26.2274 800.851 28.7083 800.919 31.512H793.323ZM807.455 70V17.7991H840.183V24.5791H815.331V40.4841H838.475V47.2386H815.331V63.22H840.489V70H807.455ZM890.471 34.7746H882.518C882.213 33.0753 881.643 31.58 880.811 30.2886C879.978 28.9971 878.959 27.9011 877.752 27.0005C876.546 26.0999 875.195 25.4202 873.699 24.9614C872.221 24.5026 870.649 24.2732 868.984 24.2732C865.976 24.2732 863.283 25.0294 860.904 26.5417C858.542 28.054 856.673 30.2716 855.296 33.1943C853.937 36.117 853.257 39.6854 853.257 43.8995C853.257 48.1477 853.937 51.7331 855.296 54.6558C856.673 57.5785 858.551 59.7875 860.929 61.2829C863.308 62.7782 865.985 63.5259 868.958 63.5259C870.607 63.5259 872.17 63.305 873.648 62.8632C875.144 62.4044 876.495 61.7332 877.701 60.8495C878.908 59.9659 879.927 58.8869 880.76 57.6125C881.609 56.321 882.196 54.8427 882.518 53.1774L890.471 53.2029C890.046 55.7688 889.222 58.1307 887.999 60.2888C886.792 62.4298 885.237 64.282 883.334 65.8453C881.448 67.3917 879.29 68.5896 876.86 69.4392C874.43 70.2889 871.779 70.7137 868.907 70.7137C864.387 70.7137 860.36 69.6432 856.826 67.5021C853.291 65.3441 850.505 62.2599 848.466 58.2497C846.443 54.2395 845.432 49.4561 845.432 43.8995C845.432 38.326 846.452 33.5426 848.491 29.5494C850.53 25.5392 853.317 22.4635 856.851 20.3225C860.386 18.1644 864.404 17.0854 868.907 17.0854C871.677 17.0854 874.26 17.4847 876.656 18.2834C879.069 19.065 881.236 20.2205 883.156 21.7498C885.076 23.2622 886.665 25.1143 887.922 27.3064C889.18 29.4814 890.029 31.9708 890.471 34.7746ZM929.875 17.7991H937.777V52.1324C937.777 55.7858 936.919 59.0229 935.202 61.8436C933.486 64.6474 931.073 66.8564 927.964 68.4707C924.854 70.068 921.209 70.8666 917.029 70.8666C912.866 70.8666 909.229 70.068 906.12 68.4707C903.01 66.8564 900.597 64.6474 898.881 61.8436C897.165 59.0229 896.307 55.7858 896.307 52.1324V17.7991H904.183V51.4952C904.183 53.8571 904.701 55.9557 905.737 57.7909C906.791 59.6261 908.278 61.0704 910.198 62.124C912.118 63.1605 914.395 63.6788 917.029 63.6788C919.68 63.6788 921.965 63.1605 923.885 62.124C925.823 61.0704 927.301 59.6261 928.32 57.7909C929.357 55.9557 929.875 53.8571 929.875 51.4952V17.7991ZM945.639 70V17.7991H964.246C968.29 17.7991 971.646 18.4958 974.314 19.8892C976.998 21.2825 979.004 23.2112 980.329 25.6751C981.654 28.122 982.317 30.9513 982.317 34.1628C982.317 37.3574 981.646 40.1697 980.303 42.5996C978.978 45.0125 976.973 46.8902 974.288 48.2326C971.62 49.575 968.264 50.2462 964.22 50.2462H950.125V43.4662H963.506C966.055 43.4662 968.128 43.1009 969.726 42.3702C971.34 41.6395 972.521 40.5775 973.269 39.1841C974.016 37.7907 974.39 36.117 974.39 34.1628C974.39 32.1917 974.008 30.484 973.243 29.0396C972.495 27.5952 971.314 26.4907 969.7 25.7261C968.103 24.9444 966.004 24.5536 963.404 24.5536H953.515V70H945.639ZM971.408 46.4484L984.305 70H975.333L962.691 46.4484H971.408ZM996.188 17.7991V70H988.312V17.7991H996.188ZM1001.49 24.5791V17.7991H1041.89V24.5791H1025.61V70H1017.76V24.5791H1001.49ZM1043.21 17.7991H1052.15L1065.79 41.5291H1066.35L1079.99 17.7991H1088.93L1069.99 49.5071V70H1062.14V49.5071L1043.21 17.7991Z" fill="#FAFAFA"/>
<path fill-rule="evenodd" clip-rule="evenodd" d="M115.818 21.3941C86.4362 25.0325 59.8459 37.7035 39.4337 57.7935C3.49144 93.1672 -9.14019 145.677 6.76864 193.582C9.25647 201.073 15.0698 213.616 19.0001 219.969L21.7121 224.354L13.4507 242.445C8.90639 252.395 5.2675 261.09 5.36404 261.768C5.53877 262.996 5.98354 263 130.472 263C246.31 263 255.42 262.925 255.601 261.98C255.708 261.418 252.034 252.692 247.435 242.587C242.836 232.482 239.072 223.938 239.071 223.599C239.069 223.261 240.253 221.044 241.702 218.674C253.187 199.881 259.985 175.114 260 152.008C260.043 87.4147 213.601 32.4909 150.294 22.2646C143.105 21.1035 122.389 20.5802 115.818 21.3941ZM146.786 32.7433C168.617 35.8707 189.546 45.2905 206.546 59.641C227.363 77.2137 241.105 100.504 246.981 128.176C248.59 135.753 248.679 137.015 248.67 151.878C248.66 166.712 248.566 168.011 246.963 175.466C244.04 189.067 239.354 201.352 232.829 212.525L229.417 218.366H143.311V209.167C143.311 200.732 143.425 199.773 144.686 197.624C145.877 195.594 146.061 194.415 146.061 188.816C146.061 183.217 145.877 182.038 144.686 180.008C143.409 177.831 143.311 176.938 143.311 167.449C143.311 157.678 143.381 157.09 144.911 153.938C146.367 150.94 146.489 150.125 146.263 144.914C146.068 140.417 145.724 138.69 144.663 136.878C143.419 134.755 143.311 133.779 143.311 124.711C143.311 115.072 143.348 114.787 144.987 111.971C146.477 109.411 146.663 108.476 146.667 103.551L146.672 98.0098L136.896 97.7211L119.789 112.485L119.484 105.254C119.22 99.0016 119.033 97.9957 118.109 97.8177C117.132 97.6294 117.04 98.3515 117.04 106.179C117.04 113.231 116.818 115.39 115.785 118.383C114.087 123.304 114.092 130.124 115.797 133.672C116.89 135.948 117.04 137.461 117.04 146.211C117.04 155.192 116.891 156.608 115.512 160.746C114.496 163.796 113.985 166.693 113.985 169.398C113.985 173.498 115.211 177.735 116.398 177.735C116.822 177.735 117.04 181.383 117.04 188.495C117.04 198.446 116.921 199.614 115.454 204.017C114.157 207.91 113.907 209.653 114.084 213.577L114.3 218.375L30.6059 218.059L28.5696 214.98C22.6115 205.974 15.6832 188.426 13.1996 176.05C10.4802 162.5 10.0776 145.481 12.1775 132.793C17.689 99.4867 36.0178 70.6492 63.4818 52.0761C78.8859 41.6577 96.7034 34.8081 114.313 32.5346C121.262 31.637 139.9 31.757 146.786 32.7433ZM123.76 46.8278C115.962 49.121 110.115 54.6685 107.868 61.9059C105.758 68.7038 106.582 74.8933 110.363 80.6458L112.267 83.5424H148.226L150.07 80.6181C157.381 69.0239 152.994 54.2228 140.5 48.3318C135.828 46.1284 128.407 45.4617 123.76 46.8278ZM113.026 85.5882C112.851 86.0462 112.789 88.6134 112.888 91.292L113.069 96.1629H147.893V85.0815L130.618 84.9177C116.542 84.7848 113.284 84.9085 113.026 85.5882ZM140.867 126.871V136.954L131.239 145.186C125.944 149.713 121.133 153.797 120.547 154.262C119.545 155.058 119.484 154.471 119.484 144.037V132.967L129.717 124.917C135.346 120.489 140.157 116.848 140.409 116.827C140.661 116.805 140.867 121.325 140.867 126.871ZM140.867 169.578V179.89L133.691 186.046C129.744 189.432 124.933 193.542 122.999 195.18L119.484 198.157V175.482L129.942 167.373C135.694 162.914 140.506 159.266 140.634 159.266C140.762 159.266 140.867 163.906 140.867 169.578ZM140.867 210.074C140.867 215.807 140.665 217.868 140.079 218.094C139.645 218.262 134.947 218.323 129.638 218.229L119.985 218.059L129.968 210.243C135.459 205.945 140.157 202.413 140.409 202.394C140.661 202.375 140.867 205.832 140.867 210.074Z" fill="#FAFAFA"/>
<path d="M357.59 213.728C357.59 218.718 358.491 222.945 360.292 226.41C362.094 229.875 364.45 232.716 367.361 234.934C370.41 237.013 373.944 238.607 377.964 239.716C381.983 240.686 386.141 241.171 390.438 241.171C393.348 241.171 396.467 240.963 399.793 240.547C403.119 239.993 406.238 239.023 409.148 237.637C412.059 236.251 414.484 234.38 416.425 232.023C418.365 229.529 419.335 226.41 419.335 222.668C419.335 218.649 418.018 215.392 415.385 212.897C412.89 210.402 409.564 208.323 405.406 206.66C401.248 204.997 396.536 203.542 391.269 202.294C386.002 201.047 380.666 199.661 375.261 198.136C369.717 196.75 364.312 195.087 359.045 193.147C353.778 191.068 349.066 188.434 344.908 185.247C340.75 182.059 337.355 178.109 334.721 173.397C332.226 168.546 330.979 162.724 330.979 155.933C330.979 148.31 332.573 141.727 335.761 136.183C339.087 130.501 343.384 125.788 348.65 122.046C353.917 118.304 359.877 115.532 366.529 113.73C373.182 111.928 379.835 111.028 386.487 111.028C394.249 111.028 401.664 111.928 408.732 113.73C415.939 115.393 422.315 118.165 427.859 122.046C433.403 125.927 437.769 130.916 440.956 137.015C444.283 142.974 445.946 150.251 445.946 158.844H414.346C414.068 154.409 413.098 150.736 411.435 147.825C409.91 144.915 407.832 142.628 405.198 140.965C402.565 139.301 399.516 138.123 396.051 137.43C392.724 136.737 389.052 136.391 385.032 136.391C382.399 136.391 379.765 136.668 377.132 137.222C374.499 137.777 372.073 138.747 369.856 140.133C367.777 141.519 366.044 143.251 364.658 145.33C363.272 147.409 362.579 150.043 362.579 153.231C362.579 156.141 363.134 158.497 364.243 160.299C365.351 162.101 367.5 163.764 370.687 165.289C374.014 166.813 378.518 168.338 384.201 169.862C390.022 171.387 397.575 173.327 406.861 175.683C409.633 176.238 413.445 177.277 418.296 178.802C423.285 180.188 428.205 182.475 433.056 185.662C437.907 188.85 442.065 193.147 445.53 198.552C449.134 203.819 450.935 210.61 450.935 218.926C450.935 225.717 449.619 232.023 446.985 237.844C444.352 243.666 440.402 248.724 435.135 253.021C430.007 257.179 423.562 260.436 415.801 262.792C408.178 265.148 399.308 266.326 389.19 266.326C381.013 266.326 373.043 265.287 365.282 263.208C357.659 261.268 350.868 258.149 344.908 253.853C339.087 249.556 334.444 244.081 330.979 237.429C327.514 230.776 325.851 222.876 325.99 213.728H357.59ZM455.595 188.573C456.011 181.643 457.744 175.891 460.793 171.318C463.842 166.744 467.723 163.071 472.435 160.299C477.147 157.527 482.414 155.587 488.235 154.478C494.195 153.231 500.154 152.607 506.114 152.607C511.519 152.607 516.994 153.023 522.538 153.854C528.082 154.547 533.141 156.002 537.714 158.22C542.288 160.438 546.03 163.556 548.941 167.575C551.851 171.456 553.307 176.654 553.307 183.168V239.092C553.307 243.943 553.584 248.586 554.138 253.021C554.693 257.456 555.663 260.782 557.049 263H527.112C526.557 261.337 526.072 259.674 525.656 258.01C525.379 256.209 525.171 254.407 525.033 252.605C520.32 257.456 514.777 260.852 508.401 262.792C502.026 264.732 495.511 265.703 488.859 265.703C483.731 265.703 478.949 265.079 474.514 263.832C470.079 262.584 466.198 260.644 462.872 258.01C459.545 255.377 456.912 252.051 454.972 248.031C453.17 244.012 452.269 239.23 452.269 233.687C452.269 227.588 453.308 222.599 455.387 218.718C457.605 214.699 460.377 211.511 463.703 209.155C467.168 206.799 471.049 205.066 475.345 203.957C479.781 202.71 484.216 201.74 488.651 201.047C493.086 200.354 497.452 199.799 501.748 199.384C506.045 198.968 509.856 198.344 513.183 197.513C516.509 196.681 519.142 195.503 521.083 193.978C523.023 192.315 523.924 189.959 523.785 186.91C523.785 183.722 523.231 181.227 522.122 179.426C521.152 177.485 519.766 176.03 517.964 175.06C516.301 173.951 514.291 173.258 511.935 172.981C509.718 172.565 507.292 172.357 504.659 172.357C498.838 172.357 494.264 173.604 490.938 176.099C487.611 178.594 485.671 182.752 485.117 188.573H455.595ZM523.785 210.402C522.538 211.511 520.944 212.412 519.004 213.105C517.202 213.659 515.192 214.144 512.975 214.56C510.896 214.976 508.678 215.322 506.322 215.6C503.966 215.877 501.61 216.223 499.254 216.639C497.036 217.055 494.818 217.609 492.601 218.302C490.522 218.995 488.651 219.965 486.988 221.213C485.463 222.322 484.216 223.777 483.245 225.579C482.275 227.38 481.79 229.667 481.79 232.439C481.79 235.073 482.275 237.29 483.245 239.092C484.216 240.894 485.532 242.349 487.196 243.458C488.859 244.428 490.799 245.121 493.017 245.537C495.234 245.952 497.521 246.16 499.877 246.16C505.698 246.16 510.203 245.19 513.391 243.25C516.578 241.309 518.934 239.023 520.459 236.389C521.984 233.617 522.884 230.845 523.162 228.073C523.577 225.301 523.785 223.084 523.785 221.421V210.402ZM565.826 155.517H593.892V170.486H594.516C598.258 164.249 603.109 159.745 609.068 156.973C615.028 154.062 621.126 152.607 627.363 152.607C635.263 152.607 641.708 153.716 646.698 155.933C651.826 158.012 655.845 160.992 658.756 164.873C661.666 168.615 663.676 173.258 664.785 178.802C666.032 184.207 666.656 190.236 666.656 196.889V263H637.135V202.294C637.135 193.424 635.749 186.841 632.977 182.544C630.205 178.109 625.284 175.891 618.216 175.891C610.177 175.891 604.356 178.317 600.753 183.168C597.149 187.88 595.347 195.711 595.347 206.66V263H565.826V155.517ZM716.088 155.517H737.709V175.268H716.088V228.489C716.088 233.479 716.92 236.805 718.583 238.468C720.246 240.131 723.572 240.963 728.562 240.963C730.225 240.963 731.819 240.894 733.344 240.755C734.868 240.616 736.323 240.409 737.709 240.131V263C735.215 263.416 732.443 263.693 729.394 263.832C726.344 263.97 723.365 264.039 720.454 264.039C715.88 264.039 711.514 263.693 707.357 263C703.337 262.446 699.734 261.268 696.546 259.466C693.497 257.664 691.071 255.1 689.269 251.774C687.468 248.447 686.567 244.081 686.567 238.676V175.268H668.688V155.517H686.567V123.293H716.088V155.517ZM740.113 188.573C740.529 181.643 742.262 175.891 745.311 171.318C748.36 166.744 752.241 163.071 756.953 160.299C761.665 157.527 766.932 155.587 772.753 154.478C778.713 153.231 784.672 152.607 790.632 152.607C796.037 152.607 801.512 153.023 807.056 153.854C812.6 154.547 817.659 156.002 822.232 158.22C826.806 160.438 830.548 163.556 833.459 167.575C836.369 171.456 837.825 176.654 837.825 183.168V239.092C837.825 243.943 838.102 248.586 838.656 253.021C839.211 257.456 840.181 260.782 841.567 263H811.63C811.075 261.337 810.59 259.674 810.174 258.01C809.897 256.209 809.689 254.407 809.551 252.605C804.838 257.456 799.295 260.852 792.919 262.792C786.544 264.732 780.029 265.703 773.377 265.703C768.249 265.703 763.467 265.079 759.032 263.832C754.597 262.584 750.716 260.644 747.39 258.01C744.063 255.377 741.43 252.051 739.49 248.031C737.688 244.012 736.787 239.23 736.787 233.687C736.787 227.588 737.826 222.599 739.905 218.718C742.123 214.699 744.895 211.511 748.221 209.155C751.686 206.799 755.567 205.066 759.863 203.957C764.299 202.71 768.734 201.74 773.169 201.047C777.604 200.354 781.97 199.799 786.266 199.384C790.563 198.968 794.374 198.344 797.701 197.513C801.027 196.681 803.66 195.503 805.601 193.978C807.541 192.315 808.442 189.959 808.303 186.91C808.303 183.722 807.749 181.227 806.64 179.426C805.67 177.485 804.284 176.03 802.482 175.06C800.819 173.951 798.809 173.258 796.453 172.981C794.236 172.565 791.81 172.357 789.177 172.357C783.356 172.357 778.782 173.604 775.456 176.099C772.129 178.594 770.189 182.752 769.635 188.573H740.113ZM808.303 210.402C807.056 211.511 805.462 212.412 803.522 213.105C801.72 213.659 799.71 214.144 797.493 214.56C795.414 214.976 793.196 215.322 790.84 215.6C788.484 215.877 786.128 216.223 783.772 216.639C781.554 217.055 779.336 217.609 777.119 218.302C775.04 218.995 773.169 219.965 771.506 221.213C769.981 222.322 768.734 223.777 767.764 225.579C766.793 227.38 766.308 229.667 766.308 232.439C766.308 235.073 766.793 237.29 767.764 239.092C768.734 240.894 770.05 242.349 771.714 243.458C773.377 244.428 775.317 245.121 777.535 245.537C779.752 245.952 782.039 246.16 784.395 246.16C790.216 246.16 794.721 245.19 797.909 243.25C801.096 241.309 803.452 239.023 804.977 236.389C806.502 233.617 807.402 230.845 807.68 228.073C808.095 225.301 808.303 223.084 808.303 221.421V210.402Z" fill="#FAFAFA"/>
</svg>
