<svg width="335" height="71" viewBox="0 0 335 71" fill="none" xmlns="http://www.w3.org/2000/svg">
<path fill-rule="evenodd" clip-rule="evenodd" d="M49.6458 67.2913C49.6458 67.2913 49.712 67.2913 49.7484 67.2814C49.7153 67.2814 49.6822 67.2814 49.6458 67.2913Z" fill="#101013"/>
<path fill-rule="evenodd" clip-rule="evenodd" d="M32.6192 39.4931C32.5166 39.4764 32.2551 39.4431 32.222 39.4331C32.0598 39.4065 31.9076 39.3732 31.7487 39.3466C31.3847 39.28 31.0107 39.2201 30.6467 39.1668C29.6538 39.0303 28.7735 39.0036 27.7839 39.1668C26.9797 39.2933 26.4468 40.2056 26.4269 40.9581C26.3773 43.1756 27.7839 44.8869 29.1308 46.4884C30.18 47.7336 31.3151 48.9523 32.6556 49.8812C32.4868 51.3296 32.4007 52.7779 32.4007 54.2363C32.4007 56.0442 32.4504 57.8754 32.8409 59.6501C33.5955 63.0595 36.1108 66.1094 39.7446 66.3425C40.3635 66.3858 41.0419 65.9662 41.3365 65.4235C41.3696 65.3636 41.4126 65.3037 41.4457 65.2371C41.684 65.6799 41.9355 66.1061 42.2169 66.5156C43.1898 67.9407 44.4111 69.3357 45.9368 70.1715C49.2662 71.986 53.1648 70.6076 55.7132 68.0905C56.289 67.5278 56.8054 66.9052 57.2885 66.2593C57.3316 66.4125 57.3746 66.559 57.4077 66.7121C57.4573 66.9152 57.5003 67.1217 57.5334 67.3348C57.5334 67.3447 57.5434 67.3847 57.55 67.428C57.55 67.4946 57.5831 67.701 57.5831 67.7077C57.6427 68.3136 57.8214 68.7831 58.3112 69.166C58.7348 69.4989 59.3868 69.702 59.9196 69.4989C62.7592 68.3902 65.1653 66.2593 66.5519 63.5657C67.3826 64.0852 68.349 64.3915 69.3485 64.4181C70.0866 64.4347 71 63.8288 71.1291 63.053C71.9598 57.9055 71.8307 52.6619 70.6889 47.5904C72.2577 46.9245 73.5087 45.6392 74.4916 44.171C75.7294 42.3131 76.6958 40.2754 77.5331 38.2144C77.543 38.1878 77.5496 38.1645 77.5662 38.1379C77.5993 38.0513 77.6324 37.968 77.6688 37.8815C77.8045 37.5319 77.778 37.149 77.6423 36.7827C77.6423 36.7727 77.6324 36.7661 77.6324 36.7561C77.5993 36.6628 77.5463 36.5696 77.4967 36.4831C77.4967 36.4731 77.4967 36.4664 77.4801 36.4564C77.4702 36.4398 77.4636 36.4298 77.4537 36.4231C77.1988 36.0236 76.8017 35.7073 76.3781 35.6041C76.1828 35.5608 75.9975 35.5541 75.8188 35.5608C75.7592 35.5608 75.693 35.5608 75.6334 35.5708H75.6069C75.3852 35.6041 75.1668 35.674 74.955 35.7938C74.7332 35.9204 74.5049 36.0402 74.2765 36.1534C74.1931 36.1954 73.9695 36.2938 73.9078 36.3209L73.9025 36.3232C73.4623 36.4931 73.0221 36.6462 72.5655 36.7761C72.1253 36.8959 71.6686 36.9891 71.2185 37.0657C71.1921 37.0657 71.1755 37.0657 71.159 37.0757C71.0663 37.0857 70.9637 37.1023 70.871 37.109C70.7254 37.1257 70.5732 37.1257 70.4309 37.1356C68.5783 37.22 67.1387 36.9154 66.6505 36.7526C66.4983 36.7093 66.346 36.666 66.1938 36.6261C65.9654 36.5595 65.7437 36.4796 65.5153 36.3963C65.4392 36.3697 65.3697 36.3364 65.2936 36.3098C65.277 36.3098 65.0222 36.1899 64.9792 36.1732C64.1055 35.757 63.2847 35.2543 62.3944 34.8681C61.3022 34.392 60.1836 34.109 58.979 34.1689C57.0727 34.2621 55.1565 34.8415 53.5745 35.9402C52.9225 36.393 52.3135 36.8958 51.7774 37.4751C51.6913 37.3819 51.5987 37.2887 51.5159 37.1954C50.4138 36.1034 49.0999 35.3042 47.6603 34.7649C44.7975 33.6894 41.4151 34.059 38.7972 35.6272C38.1356 36.0266 33.9709 38.6466 33.4118 39.1724L32.8806 39.5197C32.7956 39.5197 32.6881 39.5035 32.6217 39.4934L32.6192 39.4931ZM49.6458 67.2913C49.6458 67.2913 49.712 67.2913 49.7484 67.2814C49.7153 67.2814 49.6822 67.2814 49.6458 67.2913Z" fill="#101013"/>
<path d="M28.4017 54.9346C28.4165 56.6197 28.5048 58.5553 28.9349 60.5098L28.9359 60.5147C29.0768 61.1516 29.2706 61.7965 29.514 62.4366L15.8646 70.378C14.2988 71.2887 12.2289 70.6587 11.2659 68.9786C10.303 67.2982 10.7968 65.1776 12.3626 64.2667L28.4017 54.9346ZM91.0345 64.2061C92.5982 65.116 93.0901 67.2358 92.1273 68.9161C91.1643 70.596 89.0963 71.2268 87.5325 70.3174L75.1644 63.1221C75.552 60.5137 75.7137 57.8811 75.6448 55.253L91.0345 64.2061ZM51.7503 41.3546L62.679 34.9971L62.7259 35.0186C63.4911 35.3792 64.2156 35.8098 64.9798 36.1739L65.2942 36.3096L65.5159 36.3965L65.8548 36.5176C65.9672 36.5563 66.0805 36.5928 66.1946 36.626C66.3466 36.6659 66.4988 36.7098 66.6507 36.753L66.8773 36.8194C67.5052 36.9856 68.8103 37.2096 70.431 37.1358L70.8714 37.1094C70.964 37.1028 71.0669 37.0862 71.1595 37.0762C71.176 37.0664 71.1927 37.0655 71.2191 37.0655C71.5563 37.0081 71.8978 36.9417 72.2327 36.8614L72.5657 36.7764C73.0222 36.6466 73.4627 36.493 73.9026 36.3233L73.9085 36.3214C73.9708 36.294 74.1933 36.1953 74.2767 36.1534C74.5049 36.0402 74.7337 35.9205 74.9554 35.794C75.1671 35.6742 75.3861 35.6046 75.6077 35.5714H75.6341L75.7054 35.5665L58.7532 45.4278L71.5042 52.8448C71.7414 55.5341 71.7085 58.2446 71.4124 60.9395L51.7503 49.502L33.0345 60.3887C32.9611 60.1451 32.8961 59.8988 32.8411 59.6505C32.4506 57.8758 32.4007 56.0443 32.4007 54.2364C32.4007 53.6857 32.4124 53.1363 32.4368 52.588L44.7464 45.4278L33.6556 38.9756C34.7146 38.1795 38.1965 35.9896 38.7972 35.627C39.3371 35.3036 39.9095 35.0309 40.5032 34.8116L51.7503 41.3546ZM86.2874 21.2647C91.5165 18.2229 98.3979 20.3164 101.614 25.9278C104.829 31.5394 103.188 38.5911 97.9593 41.6329L95.1126 43.2891C93.5469 44.1999 91.477 43.5698 90.514 41.8897C89.5515 40.2095 90.0451 38.0896 91.6107 37.1788L94.4583 35.5225C96.5553 34.3025 97.2086 31.4908 95.9192 29.2403C94.6295 26.9898 91.8866 26.1552 89.7894 27.3751L79.886 33.1348C79.2192 32.5005 78.3598 31.9699 77.3255 31.7178L77.2845 31.7081L77.2444 31.6993L77.0081 31.6514C76.5451 31.5688 76.137 31.5563 75.8196 31.5616V31.5606C75.802 31.5606 75.6912 31.5606 75.5677 31.5655C75.5405 31.5666 75.5089 31.5693 75.4739 31.5714H75.3089L75.013 31.6153C74.3477 31.7152 73.6568 31.9328 72.9857 32.3126L72.9788 32.3165L72.973 32.3194C72.8326 32.3995 72.6752 32.4826 72.5023 32.5684C72.4877 32.5751 72.4689 32.5838 72.4466 32.5938C72.4296 32.6014 72.4121 32.609 72.3958 32.6163C72.0712 32.7399 71.7761 32.841 71.4905 32.9229C71.2389 32.9904 70.9503 33.0515 70.6253 33.1085C70.5891 33.1136 70.5517 33.1187 70.514 33.1251H70.5003L70.4651 33.1299C70.4545 33.1304 70.4419 33.1302 70.4251 33.1309C70.4074 33.1317 70.3829 33.1327 70.3577 33.1339C70.3285 33.1352 70.2913 33.1383 70.2493 33.1407V33.1397C69.5843 33.17 68.998 33.1301 68.5521 33.0714C68.0723 33.0082 67.8531 32.937 67.9163 32.9581L67.8314 32.9297L67.7444 32.9053C67.6235 32.871 67.4704 32.8287 67.3089 32.7852C67.2268 32.7611 67.1232 32.726 66.9075 32.6475C66.887 32.6391 66.8555 32.6248 66.8216 32.6114C66.8138 32.6083 66.8051 32.6047 66.7962 32.6016L86.2874 21.2647ZM1.88702 25.9278C5.10267 20.3162 11.9788 18.2199 17.2015 21.2579L36.386 32.4171C35.8299 32.7618 34.8512 33.3761 33.8968 33.9922C33.2889 34.3847 32.6648 34.7932 32.1478 35.1446C32.0743 35.1945 31.9901 35.2513 31.8997 35.3135C31.6711 35.276 31.4447 35.2411 31.2259 35.209L31.2093 35.2061L31.1917 35.2042C29.9335 35.0312 28.65 34.9766 27.1849 35.212L13.7005 27.3682C11.6058 26.1497 8.86425 26.9857 7.57452 29.2364C6.28501 31.4871 6.93692 34.2972 9.03155 35.5157L11.8753 37.17C13.4387 38.0799 13.9307 40.1988 12.9681 41.879C12.0052 43.5591 9.93716 44.1898 8.37335 43.2803L5.5296 41.626C0.307224 38.5879 -1.32836 31.5393 1.88702 25.9278Z" fill="#101013"/>
<path d="M32.8301 29.2129V29.2119V29.2129ZM31.5352 28.8779V28.877V28.8779ZM30.1377 27.6436C30.2249 27.7859 30.3252 27.9238 30.4385 28.0557C30.3252 27.9238 30.2249 27.7859 30.1377 27.6436ZM70.8262 19.8926C72.5936 19.8926 72.5937 21.2452 72.5938 22.3408V24.7891C72.5937 26.1416 72.5935 27.2373 70.8262 27.2373H33.3564L33.1826 27.2334C31.671 27.1634 31.5833 26.1663 31.5859 25.209L31.5889 24.7891V22.3408C31.5889 21.0729 31.5892 20.0308 32.3936 19.9053L32.5654 19.8926H70.8262ZM71.3408 6.6543C72.0537 5.94612 73.0331 5.50889 74.1133 5.50879C76.2938 5.50907 78.0615 7.29024 78.0615 9.4873C78.0614 11.6843 76.2938 13.4655 74.1133 13.4658C72.3681 13.4657 70.888 12.324 70.3662 10.7422H64.6943L68.0928 15.5049C68.7024 16.3597 68.3339 17.4793 67.4902 17.8926H36.1592C35.3128 17.4776 34.9463 16.3516 35.5635 15.4971L40.9619 8.02441C44.6024 2.98525 50.4416 0.000213856 56.6582 0H57.0312L71.3408 6.6543Z" fill="#101013"/>
<path d="M327.651 59.6066V53.9666L322.731 45.6066H324.471L328.431 52.4466L332.391 45.6066H334.091L329.171 53.9266V59.6066H327.651Z" fill="#101013"/>
<path d="M316.191 59.6066V47.0066H312.271V45.6066H321.631V47.0066H317.691V59.6066H316.191Z" fill="#101013"/>
<path d="M308.213 59.6066V45.6066H309.713V59.6066H308.213Z" fill="#101013"/>
<path d="M295.651 59.6066V45.6066H300.432C302.032 45.6066 303.311 46.0866 304.111 46.9066C304.811 47.6066 305.212 48.6066 305.212 49.7866V49.8266C305.212 52.0466 303.831 53.3866 301.891 53.8666L305.652 59.6066H303.852L300.331 54.1666H297.151V59.6066H295.651ZM297.151 52.8066H300.171C302.451 52.8066 303.712 51.6666 303.712 49.8866V49.8466C303.712 48.0066 302.431 46.9866 300.331 46.9866H297.151V52.8066Z" fill="#101013"/>
<path d="M287.406 59.8266C284.426 59.8266 282.406 57.9066 282.406 54.3866V45.6066H283.906V54.3466C283.906 56.9866 285.246 58.4466 287.446 58.4466C289.586 58.4466 290.946 57.0666 290.946 54.4066V45.6066H292.446V54.3066C292.446 57.9066 290.426 59.8266 287.406 59.8266Z" fill="#101013"/>
<path d="M275.761 59.8066C272.301 59.8066 269.721 56.9466 269.721 52.6866V52.5666C269.721 48.3266 272.361 45.4066 275.861 45.4066C277.781 45.4066 279.021 46.1066 280.121 47.1266L279.201 48.2666C278.321 47.4266 277.261 46.8066 275.841 46.8066C273.261 46.8066 271.281 49.1666 271.281 52.5466V52.6266C271.281 56.0666 273.261 58.4066 275.841 58.4066C277.281 58.4066 278.301 57.8066 279.301 56.8466L280.201 57.8866C279.021 59.0466 277.681 59.8066 275.761 59.8066Z" fill="#101013"/>
<path d="M258.991 59.6066V45.6066H267.531V46.9866H260.491V51.8666H266.811V53.2266H260.491V58.2266H267.631V59.6066H258.991Z" fill="#101013"/>
<path d="M251.974 59.8066C250.174 59.8066 248.574 59.1866 247.114 57.8266L248.054 56.6866C249.214 57.7666 250.414 58.4266 251.994 58.4266C253.674 58.4266 254.794 57.4066 254.794 56.0666V56.0466C254.794 54.8866 254.234 54.1466 251.694 53.2466C248.794 52.1666 247.654 51.1266 247.654 49.1466V49.1066C247.654 47.0066 249.414 45.4066 251.874 45.4066C253.494 45.4066 254.834 45.9066 256.074 46.9866L255.174 48.1466C254.134 47.2466 253.034 46.7866 251.814 46.7866C250.214 46.7866 249.174 47.7666 249.174 48.9666V49.0066C249.174 50.2266 249.794 50.9266 252.434 51.8866C255.274 52.9466 256.314 54.0866 256.314 55.9466V55.9866C256.314 58.2266 254.474 59.8066 251.974 59.8066Z" fill="#101013"/>
<path d="M231.55 59.6066V45.6066H240.09V46.9866H233.05V51.8666H239.37V53.2266H233.05V58.2266H240.19V59.6066H231.55Z" fill="#101013"/>
<path d="M221.179 59.6066V45.6066H222.679V58.2266H229.179V59.6066H221.179Z" fill="#101013"/>
<path d="M212.342 59.8265C208.762 59.8265 206.322 56.8065 206.322 52.7065V52.5465C206.322 48.4265 208.802 45.3865 212.362 45.3865C215.922 45.3865 218.362 48.4065 218.362 52.5065V52.6665C218.362 56.7865 215.902 59.8265 212.342 59.8265ZM212.362 58.4465C214.942 58.4465 216.822 56.0665 216.822 52.6865V52.5465C216.822 49.1665 214.922 46.7665 212.342 46.7665C209.762 46.7665 207.882 49.1465 207.882 52.5265V52.6665C207.882 56.0465 209.782 58.4465 212.362 58.4465Z" fill="#101013"/>
<path d="M195.319 59.6066V45.6066H199.539C202.519 45.6066 204.459 47.2866 204.459 50.0466V50.0866C204.459 53.0466 202.219 54.6466 199.359 54.6666H196.819V59.6066H195.319ZM196.819 53.3066H199.399C201.579 53.3066 202.939 52.0466 202.939 50.1266V50.1066C202.939 48.0666 201.579 46.9866 199.459 46.9866H196.819V53.3066Z" fill="#101013"/>
<path d="M177.019 59.6066V45.6066H178.519V51.8666H185.279V45.6066H186.779V59.6066H185.279V53.2666H178.519V59.6066H177.019Z" fill="#101013"/>
<path d="M169.14 59.6066V47.0066H165.22V45.6066H174.58V47.0066H170.64V59.6066H169.14Z" fill="#101013"/>
<path d="M153.874 59.6066V45.6066H158.654C160.254 45.6066 161.534 46.0866 162.334 46.9066C163.034 47.6066 163.434 48.6066 163.434 49.7866V49.8266C163.434 52.0466 162.054 53.3866 160.114 53.8666L163.874 59.6066H162.074L158.554 54.1666H155.374V59.6066H153.874ZM155.374 52.8066H158.394C160.674 52.8066 161.934 51.6666 161.934 49.8866V49.8466C161.934 48.0066 160.654 46.9866 158.554 46.9866H155.374V52.8066Z" fill="#101013"/>
<path d="M145.038 59.8265C141.458 59.8265 139.018 56.8065 139.018 52.7065V52.5465C139.018 48.4265 141.498 45.3865 145.058 45.3865C148.618 45.3865 151.058 48.4065 151.058 52.5065V52.6665C151.058 56.7865 148.598 59.8265 145.038 59.8265ZM145.058 58.4465C147.638 58.4465 149.518 56.0665 149.518 52.6865V52.5465C149.518 49.1665 147.618 46.7665 145.038 46.7665C142.458 46.7665 140.578 49.1465 140.578 52.5265V52.6665C140.578 56.0465 142.478 58.4465 145.058 58.4465Z" fill="#101013"/>
<path d="M125.984 59.6066V45.6066H127.404L134.724 56.6266V45.6066H136.204V59.6066H134.944L127.444 48.3266V59.6066H125.984Z" fill="#101013"/>
<path d="M217.759 38.6065L227.286 11.3425H234.335L243.9 38.6065H236.581L234.993 33.7269H226.473L224.924 38.6065H217.759ZM228.216 28.1502H233.25L230.733 20.2111L228.216 28.1502Z" fill="#101013"/>
<path d="M206.018 38.6065V17.7713H199.318V11.4974H219.688V17.7713H212.989V38.6065H206.018Z" fill="#101013"/>
<path d="M174.159 38.6065V11.4974H180.704L189.727 25.1294V11.4974H196.582V38.6065H190.386L181.014 24.3936V38.6065H174.159Z" fill="#101013"/>
<path d="M145.902 38.6065L155.429 11.3425H162.477L172.043 38.6065H164.724L163.136 33.7269H154.616L153.067 38.6065H145.902ZM156.358 28.1502H161.393L158.876 20.2111L156.358 28.1502Z" fill="#101013"/>
<path d="M135.379 38.9938C131.352 38.9938 127.518 37.7545 124.342 35.0049L128.06 29.9316C130.267 31.7518 132.785 32.9911 135.418 32.9911C137.277 32.9911 138.245 32.1778 138.245 31.016V30.9773C138.245 29.8929 137.432 29.2345 134.256 28.1114C129.144 26.3687 125.543 24.5098 125.543 19.5914V19.4753C125.543 14.5569 129.299 11.1102 135.225 11.1102C138.865 11.1102 142.079 12.1171 144.906 14.402L141.382 19.5914C139.523 18.1585 137.277 17.1129 135.07 17.1129C133.482 17.1129 132.591 17.8874 132.591 18.8944V18.9331C132.591 20.1336 133.443 20.7533 136.89 22.0313C142.041 23.6965 145.255 25.7878 145.255 30.3964V30.4738C145.255 35.7407 141.189 38.9938 135.379 38.9938Z" fill="#101013"/>
</svg>
