<svg width="335" height="71" viewBox="0 0 335 71" fill="none" xmlns="http://www.w3.org/2000/svg">
<path fill-rule="evenodd" clip-rule="evenodd" d="M49.6458 67.2913C49.6458 67.2913 49.712 67.2913 49.7484 67.2814C49.7153 67.2814 49.6822 67.2814 49.6458 67.2913Z" fill="white"/>
<path fill-rule="evenodd" clip-rule="evenodd" d="M32.6192 39.4931C32.5166 39.4764 32.2551 39.4431 32.222 39.4331C32.0599 39.4065 31.9076 39.3732 31.7488 39.3466C31.3847 39.28 31.0107 39.2201 30.6467 39.1668C29.6538 39.0303 28.7735 39.0036 27.7839 39.1668C26.9797 39.2933 26.4469 40.2056 26.4269 40.9581C26.3773 43.1756 27.7839 44.8869 29.1309 46.4884C30.18 47.7336 31.3151 48.9523 32.6556 49.8812C32.4868 51.3296 32.4007 52.7779 32.4007 54.2363C32.4007 56.0442 32.4504 57.8754 32.8409 59.6501C33.5955 63.0595 36.1108 66.1094 39.7446 66.3425C40.3635 66.3858 41.0419 65.9662 41.3365 65.4235C41.3696 65.3636 41.4126 65.3037 41.4457 65.2371C41.684 65.6799 41.9355 66.1061 42.2169 66.5156C43.1898 67.9407 44.4111 69.3357 45.9368 70.1715C49.2662 71.986 53.1648 70.6076 55.7132 68.0905C56.289 67.5278 56.8054 66.9052 57.2886 66.2593C57.3316 66.4125 57.3746 66.559 57.4077 66.7121C57.4573 66.9152 57.5004 67.1217 57.5335 67.3348C57.5335 67.3447 57.5434 67.3847 57.55 67.428C57.55 67.4946 57.5831 67.701 57.5831 67.7077C57.6427 68.3136 57.8214 68.7831 58.3112 69.166C58.7348 69.4989 59.3868 69.702 59.9196 69.4989C62.7592 68.3902 65.1653 66.2593 66.552 63.5657C67.3827 64.0852 68.3491 64.3915 69.3486 64.4181C70.0866 64.4347 71 63.8288 71.1291 63.053C71.9598 57.9055 71.8307 52.6619 70.6889 47.5904C72.2577 46.9245 73.5087 45.6392 74.4917 44.171C75.7294 42.3131 76.6959 40.2754 77.5331 38.2144C77.543 38.1878 77.5497 38.1645 77.5662 38.1379C77.5993 38.0513 77.6324 37.968 77.6688 37.8815C77.8045 37.5319 77.778 37.149 77.6423 36.7827C77.6423 36.7727 77.6324 36.7661 77.6324 36.7561C77.5993 36.6628 77.5463 36.5696 77.4967 36.4831C77.4967 36.4731 77.4967 36.4664 77.4801 36.4564C77.4702 36.4398 77.4636 36.4298 77.4537 36.4231C77.1988 36.0236 76.8017 35.7073 76.3781 35.6041C76.1828 35.5608 75.9975 35.5541 75.8188 35.5608C75.7592 35.5608 75.693 35.5608 75.6334 35.5708H75.607C75.3852 35.6041 75.1668 35.674 74.955 35.7938C74.7332 35.9204 74.5049 36.0402 74.2765 36.1534C74.1931 36.1954 73.9695 36.2938 73.9078 36.3209L73.9025 36.3232C73.4624 36.4931 73.0222 36.6462 72.5655 36.7761C72.1253 36.8959 71.6686 36.9891 71.2185 37.0657C71.1921 37.0657 71.1755 37.0657 71.159 37.0757C71.0663 37.0857 70.9637 37.1023 70.871 37.109C70.7254 37.1257 70.5732 37.1257 70.4309 37.1356C68.5783 37.22 67.1387 36.9154 66.6505 36.7526C66.4983 36.7093 66.346 36.666 66.1938 36.6261C65.9654 36.5595 65.7437 36.4796 65.5153 36.3963C65.4392 36.3697 65.3697 36.3364 65.2936 36.3098C65.2771 36.3098 65.0222 36.1899 64.9792 36.1732C64.1055 35.757 63.2847 35.2543 62.3944 34.8681C61.3022 34.392 60.1836 34.109 58.979 34.1689C57.0727 34.2621 55.1565 34.8415 53.5745 35.9402C52.9225 36.393 52.3135 36.8958 51.7774 37.4751C51.6913 37.3819 51.5987 37.2887 51.5159 37.1954C50.4138 36.1034 49.0999 35.3042 47.6603 34.7649C44.7975 33.6894 41.4151 34.059 38.7972 35.6272C38.1356 36.0266 33.9709 38.6466 33.4118 39.1724L32.8806 39.5197C32.7957 39.5197 32.6881 39.5035 32.6217 39.4934L32.6192 39.4931ZM49.6458 67.2913C49.6458 67.2913 49.712 67.2913 49.7484 67.2814C49.7153 67.2814 49.6822 67.2814 49.6458 67.2913Z" fill="white"/>
<path d="M28.4018 54.9362C28.4167 56.6209 28.5041 58.5556 28.934 60.5095L28.935 60.5143C29.076 61.1511 29.2698 61.7962 29.5131 62.4362L15.8637 70.3776C14.298 71.2881 12.229 70.6582 11.2661 68.9782C10.3033 67.2979 10.797 65.1782 12.3628 64.2673L28.4018 54.9362ZM91.0346 64.2067C92.5981 65.1166 93.0901 67.2355 92.1274 68.9157C91.1645 70.5958 89.0965 71.2266 87.5327 70.3171L75.1635 63.1218C75.5512 60.5136 75.7139 57.8814 75.645 55.2536L91.0346 64.2067ZM51.7505 41.3542L62.6782 34.9968L62.7251 35.0182C63.4903 35.3788 64.2148 35.8094 64.979 36.1735L65.2934 36.3093L65.5151 36.3962L65.854 36.5173C65.9664 36.5559 66.0797 36.5924 66.1938 36.6257C66.3457 36.6655 66.4979 36.7094 66.6499 36.7526L66.8764 36.819C67.5042 36.9852 68.8092 37.2092 70.4301 37.1354L70.8706 37.1091C70.9631 37.1024 71.0661 37.0859 71.1587 37.0759C71.1751 37.0659 71.192 37.0651 71.2182 37.0651C71.5555 37.0077 71.8969 36.9413 72.2319 36.861L72.5649 36.7761C73.0214 36.6463 73.4618 36.4927 73.9018 36.3229L73.9077 36.321C73.9695 36.2938 74.1922 36.1951 74.2758 36.153C74.5041 36.0398 74.7329 35.9201 74.9546 35.7936C75.1662 35.6738 75.3853 35.6043 75.6069 35.571H75.6333L75.7046 35.5661L58.7524 45.4274L71.5044 52.8454C71.7415 55.5347 71.7086 58.2452 71.4126 60.9401L51.7495 49.5016L33.0337 60.3884C32.9603 60.1448 32.8953 59.8984 32.8403 59.6501C32.4498 57.8755 32.3999 56.0439 32.3999 54.236C32.3999 53.686 32.4117 53.1373 32.436 52.5895L44.7475 45.4284L33.6557 38.9763C34.7144 38.1803 38.195 35.9896 38.7964 35.6266C39.3365 35.3031 39.9094 35.0305 40.5034 34.8112L51.7505 41.3542ZM86.2876 21.2643C91.5168 18.2226 98.3981 20.3168 101.614 25.9284C104.829 31.54 103.188 38.5917 97.9594 41.6335L95.1118 43.2888C93.5461 44.1993 91.4771 43.5703 90.5141 41.8903C89.5512 40.21 90.0451 38.0893 91.6108 37.1784L94.4575 35.5221C96.5546 34.3022 97.2086 31.4915 95.9194 29.2409C94.6297 26.9902 91.8859 26.1547 89.7885 27.3747L79.8852 33.1345C79.2183 32.5003 78.3588 31.9695 77.3247 31.7175L77.2837 31.7077L77.2436 31.6989L77.0073 31.6511C76.5442 31.5685 76.1361 31.5559 75.8188 31.5612V31.5602C75.7999 31.5602 75.6896 31.5602 75.5669 31.5651C75.5396 31.5662 75.508 31.5689 75.4731 31.571H75.3081L75.0122 31.6149C74.3469 31.7149 73.6559 31.9325 72.9848 32.3122L72.978 32.3161L72.9721 32.319C72.8318 32.3991 72.6744 32.4823 72.5014 32.568C72.4869 32.5747 72.468 32.5835 72.4458 32.5934C72.4288 32.6011 72.4113 32.6086 72.395 32.6159C72.0704 32.7395 71.7752 32.8407 71.4897 32.9225C71.238 32.99 70.9495 33.0511 70.6245 33.1081C70.5883 33.1132 70.5508 33.1183 70.5131 33.1247H70.4995L70.4643 33.1296C70.4536 33.13 70.4411 33.1298 70.4243 33.1305C70.4065 33.1313 70.382 33.1323 70.3569 33.1335C70.3276 33.1348 70.2904 33.1379 70.2485 33.1403V33.1393C69.5834 33.1696 68.9971 33.1297 68.5512 33.071C68.0729 33.0079 67.8537 32.9371 67.9155 32.9577L67.8305 32.9294L67.7436 32.905C67.6226 32.8706 67.4696 32.8283 67.3081 32.7848C67.226 32.7607 67.1223 32.7256 66.9067 32.6471C66.8861 32.6387 66.8546 32.6244 66.8208 32.611C66.8128 32.6079 66.8044 32.6044 66.7954 32.6013L86.2876 21.2643ZM1.88717 25.9284C5.10281 20.3167 11.9789 18.2194 17.2016 21.2575L36.3852 32.4167C35.829 32.7615 34.8502 33.3759 33.896 33.9919C33.2881 34.3843 32.664 34.7928 32.1469 35.1442C32.0735 35.1942 31.9893 35.2509 31.8989 35.3132C31.6703 35.2756 31.4439 35.2407 31.2251 35.2087L31.2085 35.2057L31.1909 35.2038C29.9326 35.0308 28.6493 34.9761 27.184 35.2116L13.6997 27.3679C11.6051 26.1497 8.86441 26.9857 7.57467 29.236C6.28518 31.4867 6.93708 34.2969 9.0317 35.5153L11.8745 37.1696C13.4382 38.0794 13.93 40.1983 12.9673 41.8786C12.0043 43.5587 9.93731 44.1895 8.3735 43.28L5.52975 41.6257C0.307425 38.5876 -1.32799 31.5399 1.88717 25.9284Z" fill="white"/>
<path d="M30.1367 27.6436C30.224 27.786 30.325 27.9237 30.4385 28.0557C30.4953 28.1218 30.5554 28.1864 30.6191 28.249C30.81 28.4364 31.032 28.6072 31.2891 28.752C31.7747 29.0254 32.302 29.1609 32.8301 29.2119C32.3019 29.1609 31.7748 29.0254 31.2891 28.752C30.7747 28.4623 30.3987 28.0712 30.1367 27.6436ZM70.8262 19.8926C72.5936 19.8926 72.5938 21.2452 72.5938 22.3408V24.7891C72.5938 26.1416 72.5935 27.2373 70.8262 27.2373H33.3564L33.1826 27.2334C31.671 27.1634 31.5833 26.1663 31.5859 25.209L31.5889 24.7891V22.3408C31.5889 21.0729 31.5892 20.0308 32.3936 19.9053L32.5654 19.8926H70.8262ZM29.5889 24.7891C29.5889 24.881 29.587 25.0314 29.5869 25.2031L29.5986 25.7461C29.5887 25.5685 29.5859 25.3751 29.5859 25.2031L29.5889 24.7891ZM30.1406 19.2354C30.0768 19.341 30.0207 19.4457 29.9736 19.5488C30.0208 19.4457 30.0768 19.341 30.1406 19.2354ZM30.4775 18.7812C30.3943 18.8719 30.3223 18.9666 30.2559 19.0605C30.2767 19.0311 30.2959 19 30.3184 18.9707L30.4775 18.7812ZM31.6396 18.0361C31.4588 18.0948 31.2804 18.1721 31.1084 18.2725C31.2804 18.1721 31.4588 18.0948 31.6396 18.0361ZM32.1045 17.9268C32.0807 17.9303 32.057 17.9343 32.0332 17.9385C32.057 17.9343 32.0807 17.9303 32.1045 17.9268ZM71.3408 6.6543C72.0538 5.94595 73.0329 5.5088 74.1133 5.50879C76.294 5.50889 78.0615 7.29013 78.0615 9.4873C78.0614 11.6844 76.2939 13.4657 74.1133 13.4658C72.3679 13.4658 70.888 12.3242 70.3662 10.7422H64.6943L68.0928 15.5049C68.7024 16.3595 68.3346 17.479 67.4912 17.8926H36.1592C35.3128 17.4776 34.9462 16.3516 35.5635 15.4971L40.9619 8.02441C44.6024 2.98506 50.4414 0.000105394 56.6582 0H57.0313L71.3408 6.6543Z" fill="white"/>
<path d="M327.651 59.6066V53.9666L322.731 45.6066H324.471L328.431 52.4466L332.391 45.6066H334.091L329.171 53.9266V59.6066H327.651Z" fill="white"/>
<path d="M316.191 59.6066V47.0066H312.271V45.6066H321.631V47.0066H317.691V59.6066H316.191Z" fill="white"/>
<path d="M308.213 59.6066V45.6066H309.713V59.6066H308.213Z" fill="white"/>
<path d="M295.651 59.6066V45.6066H300.431C302.031 45.6066 303.311 46.0866 304.111 46.9066C304.811 47.6066 305.211 48.6066 305.211 49.7866V49.8266C305.211 52.0466 303.831 53.3866 301.891 53.8666L305.651 59.6066H303.851L300.331 54.1666H297.151V59.6066H295.651ZM297.151 52.8066H300.171C302.451 52.8066 303.711 51.6666 303.711 49.8866V49.8466C303.711 48.0066 302.431 46.9866 300.331 46.9866H297.151V52.8066Z" fill="white"/>
<path d="M287.406 59.8266C284.426 59.8266 282.406 57.9066 282.406 54.3866V45.6066H283.906V54.3466C283.906 56.9866 285.246 58.4466 287.446 58.4466C289.586 58.4466 290.946 57.0666 290.946 54.4066V45.6066H292.446V54.3066C292.446 57.9066 290.426 59.8266 287.406 59.8266Z" fill="white"/>
<path d="M275.761 59.8066C272.301 59.8066 269.721 56.9466 269.721 52.6866V52.5666C269.721 48.3266 272.361 45.4066 275.861 45.4066C277.781 45.4066 279.021 46.1066 280.121 47.1266L279.201 48.2666C278.321 47.4266 277.261 46.8066 275.841 46.8066C273.261 46.8066 271.281 49.1666 271.281 52.5466V52.6266C271.281 56.0666 273.261 58.4066 275.841 58.4066C277.281 58.4066 278.301 57.8066 279.301 56.8466L280.201 57.8866C279.021 59.0466 277.681 59.8066 275.761 59.8066Z" fill="white"/>
<path d="M258.991 59.6066V45.6066H267.531V46.9866H260.491V51.8666H266.811V53.2266H260.491V58.2266H267.631V59.6066H258.991Z" fill="white"/>
<path d="M251.974 59.8066C250.174 59.8066 248.574 59.1866 247.114 57.8266L248.054 56.6866C249.214 57.7666 250.414 58.4266 251.994 58.4266C253.674 58.4266 254.794 57.4066 254.794 56.0666V56.0466C254.794 54.8866 254.234 54.1466 251.694 53.2466C248.794 52.1666 247.654 51.1266 247.654 49.1466V49.1066C247.654 47.0066 249.414 45.4066 251.874 45.4066C253.494 45.4066 254.834 45.9066 256.074 46.9866L255.174 48.1466C254.134 47.2466 253.034 46.7866 251.814 46.7866C250.214 46.7866 249.174 47.7666 249.174 48.9666V49.0066C249.174 50.2266 249.794 50.9266 252.434 51.8866C255.274 52.9466 256.314 54.0866 256.314 55.9466V55.9866C256.314 58.2266 254.474 59.8066 251.974 59.8066Z" fill="white"/>
<path d="M231.55 59.6066V45.6066H240.09V46.9866H233.05V51.8666H239.37V53.2266H233.05V58.2266H240.19V59.6066H231.55Z" fill="white"/>
<path d="M221.179 59.6066V45.6066H222.679V58.2266H229.179V59.6066H221.179Z" fill="white"/>
<path d="M212.342 59.8265C208.762 59.8265 206.322 56.8065 206.322 52.7065V52.5465C206.322 48.4265 208.802 45.3865 212.362 45.3865C215.922 45.3865 218.362 48.4065 218.362 52.5065V52.6665C218.362 56.7865 215.902 59.8265 212.342 59.8265ZM212.362 58.4465C214.942 58.4465 216.822 56.0665 216.822 52.6865V52.5465C216.822 49.1665 214.922 46.7665 212.342 46.7665C209.762 46.7665 207.882 49.1465 207.882 52.5265V52.6665C207.882 56.0465 209.782 58.4465 212.362 58.4465Z" fill="white"/>
<path d="M195.319 59.6066V45.6066H199.539C202.519 45.6066 204.459 47.2866 204.459 50.0466V50.0866C204.459 53.0466 202.219 54.6466 199.359 54.6666H196.819V59.6066H195.319ZM196.819 53.3066H199.399C201.579 53.3066 202.939 52.0466 202.939 50.1266V50.1066C202.939 48.0666 201.579 46.9866 199.459 46.9866H196.819V53.3066Z" fill="white"/>
<path d="M177.019 59.6066V45.6066H178.519V51.8666H185.279V45.6066H186.779V59.6066H185.279V53.2666H178.519V59.6066H177.019Z" fill="white"/>
<path d="M169.14 59.6066V47.0066H165.22V45.6066H174.58V47.0066H170.64V59.6066H169.14Z" fill="white"/>
<path d="M153.874 59.6066V45.6066H158.654C160.254 45.6066 161.534 46.0866 162.334 46.9066C163.034 47.6066 163.434 48.6066 163.434 49.7866V49.8266C163.434 52.0466 162.054 53.3866 160.114 53.8666L163.874 59.6066H162.074L158.554 54.1666H155.374V59.6066H153.874ZM155.374 52.8066H158.394C160.674 52.8066 161.934 51.6666 161.934 49.8866V49.8466C161.934 48.0066 160.654 46.9866 158.554 46.9866H155.374V52.8066Z" fill="white"/>
<path d="M145.038 59.8265C141.458 59.8265 139.018 56.8065 139.018 52.7065V52.5465C139.018 48.4265 141.498 45.3865 145.058 45.3865C148.618 45.3865 151.058 48.4065 151.058 52.5065V52.6665C151.058 56.7865 148.598 59.8265 145.038 59.8265ZM145.058 58.4465C147.638 58.4465 149.518 56.0665 149.518 52.6865V52.5465C149.518 49.1665 147.618 46.7665 145.038 46.7665C142.458 46.7665 140.578 49.1465 140.578 52.5265V52.6665C140.578 56.0465 142.478 58.4465 145.058 58.4465Z" fill="white"/>
<path d="M125.983 59.6066V45.6066H127.403L134.723 56.6266V45.6066H136.203V59.6066H134.943L127.443 48.3266V59.6066H125.983Z" fill="white"/>
<path d="M217.759 38.6065L227.286 11.3425H234.335L243.9 38.6065H236.581L234.993 33.7269H226.473L224.924 38.6065H217.759ZM228.216 28.1502H233.25L230.733 20.2111L228.216 28.1502Z" fill="white"/>
<path d="M206.018 38.6065V17.7713H199.318V11.4974H219.688V17.7713H212.989V38.6065H206.018Z" fill="white"/>
<path d="M174.159 38.6065V11.4974H180.704L189.727 25.1294V11.4974H196.582V38.6065H190.386L181.014 24.3936V38.6065H174.159Z" fill="white"/>
<path d="M145.902 38.6065L155.429 11.3425H162.477L172.043 38.6065H164.724L163.136 33.7269H154.616L153.067 38.6065H145.902ZM156.358 28.1502H161.393L158.876 20.2111L156.358 28.1502Z" fill="white"/>
<path d="M135.379 38.9938C131.352 38.9938 127.518 37.7545 124.342 35.0049L128.06 29.9316C130.267 31.7518 132.785 32.9911 135.418 32.9911C137.277 32.9911 138.245 32.1778 138.245 31.016V30.9773C138.245 29.8929 137.432 29.2345 134.256 28.1114C129.144 26.3687 125.543 24.5098 125.543 19.5914V19.4753C125.543 14.5569 129.299 11.1102 135.225 11.1102C138.865 11.1102 142.079 12.1171 144.906 14.402L141.382 19.5914C139.523 18.1585 137.277 17.1129 135.07 17.1129C133.482 17.1129 132.591 17.8874 132.591 18.8944V18.9331C132.591 20.1336 133.443 20.7533 136.89 22.0313C142.041 23.6965 145.255 25.7878 145.255 30.3964V30.4738C145.255 35.7407 141.189 38.9938 135.379 38.9938Z" fill="white"/>
</svg>
